<?xml version="1.0" encoding="utf-8"?>
<!-- created with bpmn-js / http://bpmn.io -->
<!DOCTYPE svg PUBLIC "-//W3C//DTD SVG 1.1//EN" "http://www.w3.org/Graphics/SVG/1.1/DTD/svg11.dtd">
<svg xmlns="http://www.w3.org/2000/svg" xmlns:xlink="http://www.w3.org/1999/xlink" width="1682" height="878" viewBox="102 27 1682 878" version="1.1"><defs><marker id="sequenceflow-end-white-black-6bcvlo75t6jw3xy6g2l0h6khs" viewBox="0 0 20 20" refX="11" refY="10" markerWidth="10" markerHeight="10" orient="auto"><path d="M 1 5 L 11 10 L 1 15 Z" style="fill: black; stroke-width: 1px; stroke-linecap: round; stroke-dasharray: 10000, 1; stroke: black;"/></marker><marker id="association-end-white-black-6bcvlo75t6jw3xy6g2l0h6khs" viewBox="0 0 20 20" refX="12" refY="10" markerWidth="10" markerHeight="10" orient="auto"><path d="M 1 5 L 11 10 L 1 15" style="fill: none; stroke-width: 1.5px; stroke-linecap: round; stroke-dasharray: 10000, 1; stroke: black;"/></marker><marker id="conditional-default-flow-marker-white-black-6bcvlo75t6jw3xy6g2l0h6khs" viewBox="0 0 20 20" refX="0" refY="10" markerWidth="10" markerHeight="10" orient="auto"><path d="M 6 4 L 10 16" style="fill: black; stroke-width: 1px; stroke-linecap: round; stroke-dasharray: 10000, 1; stroke: black;"/></marker></defs><g style="pointer-events: none;" class="djs-drag-group" transform="translate(106)"/><g style="pointer-events: none;" class="djs-drag-group" transform="translate(48)"/><g style="pointer-events: none;" class="djs-drag-group" transform="translate(83)"/><g class="djs-group"><g class="djs-element djs-shape" data-element-id="StartEvent_1" transform="translate(116, 397)" style="display: block;"><g class="djs-visual"><circle cx="18" cy="18" r="18" style="stroke: black; stroke-width: 2px; fill: white;"/></g><rect x="0" y="0" width="36" height="36" style="fill: none; stroke-opacity: 0; stroke: white; stroke-width: 15px;" class="djs-hit"/><rect x="-6" y="-6" width="48" height="48" style="fill: none;" class="djs-outline"/></g></g><g class="djs-group"><g class="djs-element djs-shape" data-element-id="StartEvent_1_label" transform="translate(108, 433)" style="display: block;"><g class="djs-visual"><text style="font-family: Arial,sans-serif; font-size: 11px;" class="djs-label"><tspan x="0" y="13">Starting to </tspan><tspan x="4" y="26">Populate </tspan><tspan x="2" y="39">Timetable</tspan><tspan x="26" y="52"/></text></g><rect x="0" y="0" width="52" height="52" style="fill: none; stroke-opacity: 0; stroke: white; stroke-width: 15px;" class="djs-hit"/><rect x="-6" y="-6" width="64" height="64" style="fill: none;" class="djs-outline"/></g></g><g class="djs-group"><g class="djs-element djs-shape" data-element-id="Task_07tsz9c" transform="translate(418, 375)" style="display: block;"><g class="djs-visual"><rect x="0" y="0" width="100" height="80" rx="10" ry="10" style="stroke: black; stroke-width: 2px; fill: white;"/><text style="font-family: Arial,sans-serif; font-size: 12px; fill: black;" class="djs-label"><tspan x="16.5" y="29.5">Access The </tspan><tspan x="16.5" y="43.5">Course List</tspan><tspan x="50" y="57.5"/></text></g><rect x="0" y="0" width="100" height="80" style="fill: none; stroke-opacity: 0; stroke: white; stroke-width: 15px;" class="djs-hit"/><rect x="-6" y="-6" width="112" height="92" style="fill: none;" class="djs-outline"/></g></g><g class="djs-group"><g class="djs-element djs-shape" data-element-id="ExclusiveGateway_1vovqgx" transform="translate(443, 218)" style="display: block;"><g class="djs-visual"><polygon points="25,0 50,25 25,50 0,25" style="stroke: black; stroke-width: 2px; fill: white;"/><path d="m 16,15 7.42857142857143,9.714285714285715 -7.42857142857143,9.714285714285715 3.428571428571429,0 5.714285714285715,-7.464228571428572 5.714285714285715,7.464228571428572 3.428571428571429,0 -7.42857142857143,-9.714285714285715 7.42857142857143,-9.714285714285715 -3.428571428571429,0 -5.714285714285715,7.464228571428572 -5.714285714285715,-7.464228571428572 -3.428571428571429,0 z" style="fill: black; stroke-width: 1px; stroke: black;"/></g><rect x="0" y="0" width="50" height="50" style="fill: none; stroke-opacity: 0; stroke: white; stroke-width: 15px;" class="djs-hit"/><rect x="-6" y="-6" width="62" height="62" style="fill: none;" class="djs-outline"/></g></g><g class="djs-group"><g class="djs-element djs-shape" data-element-id="ExclusiveGateway_1vovqgx_label" transform="translate(423, 271)" style="display: none;"><g class="djs-visual"><text style="font-family: Arial,sans-serif; font-size: 11px;" class="djs-label"><tspan x="0" y="13"/></text></g><rect x="0" y="0" width="90" height="13" style="fill: none; stroke-opacity: 0; stroke: white; stroke-width: 15px;" class="djs-hit"/><rect x="-6" y="-6" width="102" height="25" style="fill: none;" class="djs-outline"/></g></g><g class="djs-group"><g class="djs-element djs-shape" data-element-id="Task_0iu9xis" transform="translate(613, 203)" style="display: block;"><g class="djs-visual"><rect x="0" y="0" width="100" height="80" rx="10" ry="10" style="stroke: black; stroke-width: 2px; fill: white;"/><text style="font-family: Arial,sans-serif; font-size: 12px; fill: black;" class="djs-label"><tspan x="25" y="22.5">Show All </tspan><tspan x="27" y="36.5">Existing </tspan><tspan x="24.5" y="50.5">Courses</tspan><tspan x="50" y="64.5"/></text></g><rect x="0" y="0" width="100" height="80" style="fill: none; stroke-opacity: 0; stroke: white; stroke-width: 15px;" class="djs-hit"/><rect x="-6" y="-6" width="112" height="92" style="fill: none;" class="djs-outline"/></g></g><g class="djs-group"><g class="djs-element djs-shape" data-element-id="Task_12egviz" transform="translate(222, 203)" style="display: block;"><g class="djs-visual"><rect x="0" y="0" width="100" height="80" rx="10" ry="10" style="stroke: black; stroke-width: 2px; fill: white;"/><text style="font-family: Arial,sans-serif; font-size: 12px; fill: black;" class="djs-label"><tspan x="19" y="22.5">Redirect to </tspan><tspan x="10" y="36.5">Authentication </tspan><tspan x="34" y="50.5">Page</tspan><tspan x="50" y="64.5"/></text></g><rect x="0" y="0" width="100" height="80" style="fill: none; stroke-opacity: 0; stroke: white; stroke-width: 15px;" class="djs-hit"/><rect x="-6" y="-6" width="112" height="92" style="fill: none;" class="djs-outline"/></g></g><g class="djs-group"><g class="djs-element djs-shape" data-element-id="Task_1iat7r9" transform="translate(879, 203)" style="display: block;"><g class="djs-visual"><rect x="0" y="0" width="100" height="80" rx="10" ry="10" style="stroke: black; stroke-width: 2px; fill: white;"/><text style="font-family: Arial,sans-serif; font-size: 12px; fill: black;" class="djs-label"><tspan x="21" y="29.5">Sign up to </tspan><tspan x="26.5" y="43.5">Course.</tspan><tspan x="50" y="57.5"/></text></g><rect x="0" y="0" width="100" height="80" style="fill: none; stroke-opacity: 0; stroke: white; stroke-width: 15px;" class="djs-hit"/><rect x="-6" y="-6" width="112" height="92" style="fill: none;" class="djs-outline"/></g></g><g class="djs-group"><g class="djs-element djs-shape" data-element-id="Task_1xi17vx" transform="translate(1157, 203)" style="display: block;"><g class="djs-visual"><rect x="0" y="0" width="100" height="80" rx="10" ry="10" style="stroke: black; stroke-width: 2px; fill: white;"/><text style="font-family: Arial,sans-serif; font-size: 12px; fill: black;" class="djs-label"><tspan x="11" y="29.5">Add course to </tspan><tspan x="23" y="43.5">timetable</tspan><tspan x="50" y="57.5"/></text></g><rect x="0" y="0" width="100" height="80" style="fill: none; stroke-opacity: 0; stroke: white; stroke-width: 15px;" class="djs-hit"/><rect x="-6" y="-6" width="112" height="92" style="fill: none;" class="djs-outline"/></g></g><g class="djs-group"><g class="djs-element djs-shape" data-element-id="Task_0vnsxum" transform="translate(1453, 203)" style="display: block;"><g class="djs-visual"><rect x="0" y="0" width="100" height="80" rx="10" ry="10" style="stroke: black; stroke-width: 2px; fill: white;"/><text style="font-family: Arial,sans-serif; font-size: 12px; fill: black;" class="djs-label"><tspan x="18" y="29.5">All courses </tspan><tspan x="23" y="43.5">approved</tspan><tspan x="50" y="57.5"/></text></g><rect x="0" y="0" width="100" height="80" style="fill: none; stroke-opacity: 0; stroke: white; stroke-width: 15px;" class="djs-hit"/><rect x="-6" y="-6" width="112" height="92" style="fill: none;" class="djs-outline"/></g></g><g class="djs-group"><g class="djs-element djs-shape" data-element-id="EndEvent_1q82klk" transform="translate(1722, 225)" style="display: block;"><g class="djs-visual"><circle cx="18" cy="18" r="18" style="stroke: black; stroke-width: 4px; fill: white;"/></g><rect x="0" y="0" width="36" height="36" style="fill: none; stroke-opacity: 0; stroke: white; stroke-width: 15px;" class="djs-hit"/><rect x="-6" y="-6" width="48" height="48" style="fill: none;" class="djs-outline"/></g></g><g class="djs-group"><g class="djs-element djs-shape" data-element-id="EndEvent_1q82klk_label" transform="translate(1702, 264)" style="display: block;"><g class="djs-visual"><text style="font-family: Arial,sans-serif; font-size: 11px;" class="djs-label"><tspan x="0" y="13">Save Timetable</tspan><tspan x="38" y="26"/></text></g><rect x="0" y="0" width="76" height="26" style="fill: none; stroke-opacity: 0; stroke: white; stroke-width: 15px;" class="djs-hit"/><rect x="-6" y="-6" width="88" height="38" style="fill: none;" class="djs-outline"/></g></g><g class="djs-group"><g class="djs-element djs-shape" data-element-id="ExclusiveGateway_1f9sxd8" transform="translate(904, 431)" style="display: block;"><g class="djs-visual"><polygon points="25,0 50,25 25,50 0,25" style="stroke: black; stroke-width: 2px; fill: white;"/><circle cx="25" cy="25" r="13" style="stroke: black; stroke-width: 2.5px; fill: white;"/></g><rect x="0" y="0" width="50" height="50" style="fill: none; stroke-opacity: 0; stroke: white; stroke-width: 15px;" class="djs-hit"/><rect x="-6" y="-6" width="62" height="62" style="fill: none;" class="djs-outline"/></g></g><g class="djs-group"><g class="djs-element djs-shape" data-element-id="ExclusiveGateway_1f9sxd8_label" transform="translate(945, 411)" style="display: block;"><g class="djs-visual"><text style="font-family: Arial,sans-serif; font-size: 11px;" class="djs-label"><tspan x="0" y="13">Is the Course </tspan><tspan x="7" y="26">Available?</tspan><tspan x="33.5" y="39"/></text></g><rect x="0" y="0" width="67" height="39" style="fill: none; stroke-opacity: 0; stroke: white; stroke-width: 15px;" class="djs-hit"/><rect x="-6" y="-6" width="79" height="51" style="fill: none;" class="djs-outline"/></g></g><g class="djs-group"><g class="djs-element djs-shape" data-element-id="DataStoreReference_0vfepcf" transform="translate(638, 55)" style="display: block;"><g class="djs-visual"><path d="m  0,6.65 l  0,36.885245901639344 c  1.639344262295082,8.196721311475411 47.540983606557376,8.196721311475411  49.18032786885246,0 l  0,-36.885245901639344 c -1.639344262295082,-8.196721311475411 -47.540983606557376,-8.196721311475411 -49.18032786885246,0c  1.639344262295082,8.196721311475411 47.540983606557376,8.196721311475411  49.18032786885246,0 m  -49.18032786885246,5.737704918032787c  1.639344262295082,8.196721311475411 47.540983606557376,8.196721311475411 49.18032786885246,0m  -49.18032786885246,5.737704918032787c  1.639344262295082,8.196721311475411 47.540983606557376,8.196721311475411  49.18032786885246,0" style="fill: white; stroke-width: 2px; stroke: black;"/></g><rect x="0" y="0" width="50" height="50" style="fill: none; stroke-opacity: 0; stroke: white; stroke-width: 15px;" class="djs-hit"/><rect x="-6" y="-6" width="62" height="62" style="fill: none;" class="djs-outline"/></g></g><g class="djs-group"><g class="djs-element djs-shape" data-element-id="DataStoreReference_0vfepcf_label" transform="translate(632, 33)" style="display: block;"><g class="djs-visual"><text style="font-family: Arial,sans-serif; font-size: 11px;" class="djs-label"><tspan x="0" y="13">Courses DB</tspan><tspan x="30.5" y="26"/></text></g><rect x="0" y="0" width="61" height="26" style="fill: none; stroke-opacity: 0; stroke: white; stroke-width: 15px;" class="djs-hit"/><rect x="-6" y="-6" width="73" height="38" style="fill: none;" class="djs-outline"/></g></g><g class="djs-group"><g class="djs-element djs-shape" data-element-id="ExclusiveGateway_0uussaf" transform="translate(904, 801)" style="display: block;"><g class="djs-visual"><polygon points="25,0 50,25 25,50 0,25" style="stroke: black; stroke-width: 2px; fill: white;"/><path d="m 16,15 7.42857142857143,9.714285714285715 -7.42857142857143,9.714285714285715 3.428571428571429,0 5.714285714285715,-7.464228571428572 5.714285714285715,7.464228571428572 3.428571428571429,0 -7.42857142857143,-9.714285714285715 7.42857142857143,-9.714285714285715 -3.428571428571429,0 -5.714285714285715,7.464228571428572 -5.714285714285715,-7.464228571428572 -3.428571428571429,0 z" style="fill: black; stroke-width: 1px; stroke: black;"/></g><rect x="0" y="0" width="50" height="50" style="fill: none; stroke-opacity: 0; stroke: white; stroke-width: 15px;" class="djs-hit"/><rect x="-6" y="-6" width="62" height="62" style="fill: none;" class="djs-outline"/></g></g><g class="djs-group"><g class="djs-element djs-shape" data-element-id="ExclusiveGateway_0uussaf_label" transform="translate(886, 854)" style="display: block;"><g class="djs-visual"><text style="font-family: Arial,sans-serif; font-size: 11px;" class="djs-label"><tspan x="0" y="13">Has there been a </tspan><tspan x="8" y="26">request sent?</tspan><tspan x="43" y="39"/></text></g><rect x="0" y="0" width="86" height="39" style="fill: none; stroke-opacity: 0; stroke: white; stroke-width: 15px;" class="djs-hit"/><rect x="-6" y="-6" width="98" height="51" style="fill: none;" class="djs-outline"/></g></g><g class="djs-group"><g class="djs-element djs-shape" data-element-id="EndEvent_09m6vo1" transform="translate(1050, 808)" style="display: block;"><g class="djs-visual"><circle cx="18" cy="18" r="18" style="stroke: black; stroke-width: 4px; fill: white;"/></g><rect x="0" y="0" width="36" height="36" style="fill: none; stroke-opacity: 0; stroke: white; stroke-width: 15px;" class="djs-hit"/><rect x="-6" y="-6" width="48" height="48" style="fill: none;" class="djs-outline"/></g></g><g class="djs-group"><g class="djs-element djs-shape" data-element-id="EndEvent_09m6vo1_label" transform="translate(1031, 847)" style="display: block;"><g class="djs-visual"><text style="font-family: Arial,sans-serif; font-size: 11px;" class="djs-label"><tspan x="0" y="13">Course Cannot </tspan><tspan x="6.5" y="26">be Added to </tspan><tspan x="13.5" y="39">Timetable</tspan><tspan x="37.5" y="52"/></text></g><rect x="0" y="0" width="75" height="52" style="fill: none; stroke-opacity: 0; stroke: white; stroke-width: 15px;" class="djs-hit"/><rect x="-6" y="-6" width="87" height="64" style="fill: none;" class="djs-outline"/></g></g><g class="djs-group"><g class="djs-element djs-shape" data-element-id="IntermediateThrowEvent_0v42mz4" transform="translate(911, 628)" style="display: block;"><g class="djs-visual"><circle cx="18" cy="18" r="18" style="stroke: black; stroke-width: 1px; fill: white;"/><circle cx="18" cy="18" r="15" style="stroke: black; stroke-width: 1px; fill: none;"/></g><rect x="0" y="0" width="36" height="36" style="fill: none; stroke-opacity: 0; stroke: white; stroke-width: 15px;" class="djs-hit"/><rect x="-6" y="-6" width="48" height="48" style="fill: none;" class="djs-outline"/></g></g><g class="djs-group"><g class="djs-element djs-shape" data-element-id="IntermediateThrowEvent_0v42mz4_label" transform="translate(935, 666)" style="display: block;"><g class="djs-visual"><text style="font-family: Arial,sans-serif; font-size: 11px;" class="djs-label"><tspan x="0" y="13">Contact an Admin</tspan><tspan x="20.5" y="26">Message </tspan><tspan x="22.5" y="39">Redirect</tspan><tspan x="44" y="52"/></text></g><rect x="0" y="0" width="88" height="52" style="fill: none; stroke-opacity: 0; stroke: white; stroke-width: 15px;" class="djs-hit"/><rect x="-6" y="-6" width="100" height="64" style="fill: none;" class="djs-outline"/></g></g><g class="djs-group"><g class="djs-element djs-shape" data-element-id="ExclusiveGateway_08qaipf" transform="translate(1182, 431)" style="display: block;"><g class="djs-visual"><polygon points="25,0 50,25 25,50 0,25" style="stroke: black; stroke-width: 2px; fill: white;"/><path d="m 16,15 7.42857142857143,9.714285714285715 -7.42857142857143,9.714285714285715 3.428571428571429,0 5.714285714285715,-7.464228571428572 5.714285714285715,7.464228571428572 3.428571428571429,0 -7.42857142857143,-9.714285714285715 7.42857142857143,-9.714285714285715 -3.428571428571429,0 -5.714285714285715,7.464228571428572 -5.714285714285715,-7.464228571428572 -3.428571428571429,0 z" style="fill: black; stroke-width: 1px; stroke: black;"/></g><rect x="0" y="0" width="50" height="50" style="fill: none; stroke-opacity: 0; stroke: white; stroke-width: 15px;" class="djs-hit"/><rect x="-6" y="-6" width="62" height="62" style="fill: none;" class="djs-outline"/></g></g><g class="djs-group"><g class="djs-element djs-shape" data-element-id="ExclusiveGateway_08qaipf_label" transform="translate(1214, 482)" style="display: block;"><g class="djs-visual"><text style="font-family: Arial,sans-serif; font-size: 11px;" class="djs-label"><tspan x="2.5" y="13">Does it need </tspan><tspan x="0" y="26">course admin </tspan><tspan x="8.5" y="39">approval?</tspan><tspan x="34" y="52"/></text></g><rect x="0" y="0" width="68" height="52" style="fill: none; stroke-opacity: 0; stroke: white; stroke-width: 15px;" class="djs-hit"/><rect x="-6" y="-6" width="80" height="64" style="fill: none;" class="djs-outline"/></g></g><g class="djs-group"><g class="djs-element djs-shape" data-element-id="Task_1cs51fu" transform="translate(769, 786)" style="display: block;"><g class="djs-visual"><rect x="0" y="0" width="100" height="80" rx="10" ry="10" style="stroke: black; stroke-width: 2px; fill: white;"/><text style="font-family: Arial,sans-serif; font-size: 12px; fill: black;" class="djs-label"><tspan x="10" y="22.5">Request to be </tspan><tspan x="27.5" y="36.5">granted </tspan><tspan x="27" y="50.5">access.</tspan><tspan x="50" y="64.5"/></text><path d="m 5.984999999999999,4.997999999999999 l 0,14 l 21,0 l 0,-14 z l 10.5,6 l 10.5,-6" style="fill: black; stroke-width: 1px; stroke: white;"/></g><rect x="0" y="0" width="100" height="80" style="fill: none; stroke-opacity: 0; stroke: white; stroke-width: 15px;" class="djs-hit"/><rect x="-6" y="-6" width="112" height="92" style="fill: none;" class="djs-outline"/></g></g><g class="djs-group"><g class="djs-element djs-connection" data-element-id="SequenceFlow_16mzev4" style="display: block;"><g class="djs-visual"><path d="m  152,415L418,415 " style="fill: none; stroke-width: 2px; stroke: black; stroke-linejoin: round; marker-end: url('#sequenceflow-end-white-black-6bcvlo75t6jw3xy6g2l0h6khs');"/></g><polyline points="152,415 418,415 " style="fill: none; stroke-opacity: 0; stroke: white; stroke-width: 15px;" class="djs-hit"/><rect x="146" y="409" width="278" height="12" style="fill: none;" class="djs-outline"/></g></g><g class="djs-group"><g class="djs-element djs-shape" data-element-id="SequenceFlow_16mzev4_label" transform="translate(240, 394)" style="display: none;"><g class="djs-visual"><text style="font-family: Arial,sans-serif; font-size: 11px;" class="djs-label"><tspan x="0" y="13"/></text></g><rect x="0" y="0" width="90" height="13" style="fill: none; stroke-opacity: 0; stroke: white; stroke-width: 15px;" class="djs-hit"/><rect x="-6" y="-6" width="102" height="25" style="fill: none;" class="djs-outline"/></g></g><g class="djs-group"><g class="djs-element djs-connection" data-element-id="SequenceFlow_1ruk3ap" style="display: block;"><g class="djs-visual"><path d="m  468,375L468,268 " style="fill: none; stroke-width: 2px; stroke: black; stroke-linejoin: round; marker-end: url('#sequenceflow-end-white-black-6bcvlo75t6jw3xy6g2l0h6khs');"/></g><polyline points="468,375 468,268 " style="fill: none; stroke-opacity: 0; stroke: white; stroke-width: 15px;" class="djs-hit"/><rect x="462" y="262" width="12" height="119" style="fill: none;" class="djs-outline"/></g></g><g class="djs-group"><g class="djs-element djs-shape" data-element-id="SequenceFlow_1ruk3ap_label" transform="translate(441, 315)" style="display: block;"><g class="djs-visual"><text style="font-family: Arial,sans-serif; font-size: 11px;" class="djs-label"><tspan x="0" y="13"> Is User Logged?</tspan><tspan x="42.5" y="26"/></text></g><rect x="0" y="0" width="85" height="26" style="fill: none; stroke-opacity: 0; stroke: white; stroke-width: 15px;" class="djs-hit"/><rect x="-6" y="-6" width="97" height="38" style="fill: none;" class="djs-outline"/></g></g><g class="djs-group"><g class="djs-element djs-connection" data-element-id="DataInputAssociation_19hrp7o" style="display: block;"><g class="djs-visual"><polyline points="663,105 662.5853658536585,201.2404181184669 " style="fill: none; stroke: black; stroke-width: 2px; stroke-dasharray: 0.5, 5; stroke-linecap: round; stroke-linejoin: round; marker-end: url('#association-end-white-black-6bcvlo75t6jw3xy6g2l0h6khs');"/></g><polyline points="663,105 662.5853658536585,201.2404181184669 " style="fill: none; stroke-opacity: 0; stroke: white; stroke-width: 15px;" class="djs-hit"/><rect x="656.5853658536585" y="99" width="12.414634146341541" height="108.24041811846689" style="fill: none;" class="djs-outline"/></g></g><g class="djs-group"><g class="djs-element djs-connection" data-element-id="SequenceFlow_1ixtths" style="display: block;"><g class="djs-visual"><path d="m  493,243L613,243 " style="fill: none; stroke-width: 2px; stroke: black; stroke-linejoin: round; marker-end: url('#sequenceflow-end-white-black-6bcvlo75t6jw3xy6g2l0h6khs');"/></g><polyline points="493,243 613,243 " style="fill: none; stroke-opacity: 0; stroke: white; stroke-width: 15px;" class="djs-hit"/><rect x="487" y="237" width="132" height="12" style="fill: none;" class="djs-outline"/></g></g><g class="djs-group"><g class="djs-element djs-shape" data-element-id="SequenceFlow_1ixtths_label" transform="translate(508, 222)" style="display: none;"><g class="djs-visual"><text style="font-family: Arial,sans-serif; font-size: 11px;" class="djs-label"><tspan x="0" y="13"/></text></g><rect x="0" y="0" width="90" height="13" style="fill: none; stroke-opacity: 0; stroke: white; stroke-width: 15px;" class="djs-hit"/><rect x="-6" y="-6" width="102" height="25" style="fill: none;" class="djs-outline"/></g></g><g class="djs-group"><g class="djs-element djs-connection" data-element-id="SequenceFlow_0854co2" style="display: block;"><g class="djs-visual"><path d="m  443,243L322,243 " style="fill: none; stroke-width: 2px; stroke: black; stroke-linejoin: round; marker-end: url('#sequenceflow-end-white-black-6bcvlo75t6jw3xy6g2l0h6khs');"/></g><polyline points="443,243 322,243 " style="fill: none; stroke-opacity: 0; stroke: white; stroke-width: 15px;" class="djs-hit"/><rect x="316" y="237" width="133" height="12" style="fill: none;" class="djs-outline"/></g></g><g class="djs-group"><g class="djs-element djs-shape" data-element-id="SequenceFlow_0854co2_label" transform="translate(338, 222)" style="display: none;"><g class="djs-visual"><text style="font-family: Arial,sans-serif; font-size: 11px;" class="djs-label"><tspan x="0" y="13"/></text></g><rect x="0" y="0" width="90" height="13" style="fill: none; stroke-opacity: 0; stroke: white; stroke-width: 15px;" class="djs-hit"/><rect x="-6" y="-6" width="102" height="25" style="fill: none;" class="djs-outline"/></g></g><g class="djs-group"><g class="djs-element djs-connection" data-element-id="SequenceFlow_1ylj5oy" style="display: block;"><g class="djs-visual"><path d="m  272,283L272,415 L418,415 " style="fill: none; stroke-width: 2px; stroke: black; stroke-linejoin: round; marker-end: url('#sequenceflow-end-white-black-6bcvlo75t6jw3xy6g2l0h6khs');"/></g><polyline points="272,283 272,415 418,415 " style="fill: none; stroke-opacity: 0; stroke: white; stroke-width: 15px;" class="djs-hit"/><rect x="266" y="277" width="158" height="144" style="fill: none;" class="djs-outline"/></g></g><g class="djs-group"><g class="djs-element djs-shape" data-element-id="SequenceFlow_1ylj5oy_label" transform="translate(242, 343)" style="display: none;"><g class="djs-visual"><text style="font-family: Arial,sans-serif; font-size: 11px;" class="djs-label"><tspan x="0" y="13"/></text></g><rect x="0" y="0" width="90" height="13" style="fill: none; stroke-opacity: 0; stroke: white; stroke-width: 15px;" class="djs-hit"/><rect x="-6" y="-6" width="102" height="25" style="fill: none;" class="djs-outline"/></g></g><g class="djs-group"><g class="djs-element djs-connection" data-element-id="SequenceFlow_0rbdpse" style="display: block;"><g class="djs-visual"><path d="m  713,243L879,243 " style="fill: none; stroke-width: 2px; stroke: black; stroke-linejoin: round; marker-end: url('#sequenceflow-end-white-black-6bcvlo75t6jw3xy6g2l0h6khs');"/></g><polyline points="713,243 879,243 " style="fill: none; stroke-opacity: 0; stroke: white; stroke-width: 15px;" class="djs-hit"/><rect x="707" y="237" width="178" height="12" style="fill: none;" class="djs-outline"/></g></g><g class="djs-group"><g class="djs-element djs-shape" data-element-id="SequenceFlow_0rbdpse_label" transform="translate(751, 221)" style="display: none;"><g class="djs-visual"><text style="font-family: Arial,sans-serif; font-size: 11px;" class="djs-label"><tspan x="0" y="13"/></text></g><rect x="0" y="0" width="90" height="13" style="fill: none; stroke-opacity: 0; stroke: white; stroke-width: 15px;" class="djs-hit"/><rect x="-6" y="-6" width="102" height="25" style="fill: none;" class="djs-outline"/></g></g><g class="djs-group"><g class="djs-element djs-connection" data-element-id="SequenceFlow_0ixlfeg" style="display: block;"><g class="djs-visual"><path d="m  979,243L1157,243 " style="fill: none; stroke-width: 2px; stroke: black; stroke-linejoin: round; marker-end: url('#sequenceflow-end-white-black-6bcvlo75t6jw3xy6g2l0h6khs');"/></g><polyline points="979,243 1157,243 " style="fill: none; stroke-opacity: 0; stroke: white; stroke-width: 15px;" class="djs-hit"/><rect x="973" y="237" width="190" height="12" style="fill: none;" class="djs-outline"/></g></g><g class="djs-group"><g class="djs-element djs-shape" data-element-id="SequenceFlow_0ixlfeg_label" transform="translate(1023, 222)" style="display: none;"><g class="djs-visual"><text style="font-family: Arial,sans-serif; font-size: 11px;" class="djs-label"><tspan x="0" y="13"/></text></g><rect x="0" y="0" width="90" height="13" style="fill: none; stroke-opacity: 0; stroke: white; stroke-width: 15px;" class="djs-hit"/><rect x="-6" y="-6" width="102" height="25" style="fill: none;" class="djs-outline"/></g></g><g class="djs-group"><g class="djs-element djs-connection" data-element-id="SequenceFlow_0jc018v" style="display: block;"><g class="djs-visual"><path d="m  1257,243L1453,243 " style="fill: none; stroke-width: 2px; stroke: black; stroke-linejoin: round; marker-end: url('#sequenceflow-end-white-black-6bcvlo75t6jw3xy6g2l0h6khs');"/></g><polyline points="1257,243 1453,243 " style="fill: none; stroke-opacity: 0; stroke: white; stroke-width: 15px;" class="djs-hit"/><rect x="1251" y="237" width="208" height="12" style="fill: none;" class="djs-outline"/></g></g><g class="djs-group"><g class="djs-element djs-shape" data-element-id="SequenceFlow_0jc018v_label" transform="translate(1310, 221)" style="display: none;"><g class="djs-visual"><text style="font-family: Arial,sans-serif; font-size: 11px;" class="djs-label"><tspan x="0" y="13"/></text></g><rect x="0" y="0" width="90" height="13" style="fill: none; stroke-opacity: 0; stroke: white; stroke-width: 15px;" class="djs-hit"/><rect x="-6" y="-6" width="102" height="25" style="fill: none;" class="djs-outline"/></g></g><g class="djs-group"><g class="djs-element djs-connection" data-element-id="SequenceFlow_0zc4hj1" style="display: block;"><g class="djs-visual"><path d="m  1553,243L1722,243 " style="fill: none; stroke-width: 2px; stroke: black; stroke-linejoin: round; marker-end: url('#sequenceflow-end-white-black-6bcvlo75t6jw3xy6g2l0h6khs');"/></g><polyline points="1553,243 1722,243 " style="fill: none; stroke-opacity: 0; stroke: white; stroke-width: 15px;" class="djs-hit"/><rect x="1547" y="237" width="181" height="12" style="fill: none;" class="djs-outline"/></g></g><g class="djs-group"><g class="djs-element djs-shape" data-element-id="SequenceFlow_0zc4hj1_label" transform="translate(1593, 221)" style="display: none;"><g class="djs-visual"><text style="font-family: Arial,sans-serif; font-size: 11px;" class="djs-label"><tspan x="0" y="13"/></text></g><rect x="0" y="0" width="90" height="13" style="fill: none; stroke-opacity: 0; stroke: white; stroke-width: 15px;" class="djs-hit"/><rect x="-6" y="-6" width="102" height="25" style="fill: none;" class="djs-outline"/></g></g><g class="djs-group"><g class="djs-element djs-connection" data-element-id="SequenceFlow_14zmvkh" style="display: block;"><g class="djs-visual"><path d="m  929,283L929,431 " style="fill: none; stroke-width: 2px; stroke: black; stroke-linejoin: round; marker-end: url('#sequenceflow-end-white-black-6bcvlo75t6jw3xy6g2l0h6khs');"/></g><polyline points="929,283 929,431 " style="fill: none; stroke-opacity: 0; stroke: white; stroke-width: 15px;" class="djs-hit"/><rect x="923" y="277" width="12" height="160" style="fill: none;" class="djs-outline"/></g></g><g class="djs-group"><g class="djs-element djs-shape" data-element-id="SequenceFlow_14zmvkh_label" transform="translate(899, 351)" style="display: none;"><g class="djs-visual"><text style="font-family: Arial,sans-serif; font-size: 11px;" class="djs-label"><tspan x="0" y="13"/></text></g><rect x="0" y="0" width="90" height="13" style="fill: none; stroke-opacity: 0; stroke: white; stroke-width: 15px;" class="djs-hit"/><rect x="-6" y="-6" width="102" height="25" style="fill: none;" class="djs-outline"/></g></g><g class="djs-group"><g class="djs-element djs-connection" data-element-id="SequenceFlow_1olx69y" style="display: block;"><g class="djs-visual"><path d="m  954,456L1068,456 L1068,456 L1182,456 " style="fill: none; stroke-width: 2px; stroke: black; stroke-linejoin: round; marker-end: url('#sequenceflow-end-white-black-6bcvlo75t6jw3xy6g2l0h6khs');"/></g><polyline points="954,456 1068,456 1068,456 1182,456 " style="fill: none; stroke-opacity: 0; stroke: white; stroke-width: 15px;" class="djs-hit"/><rect x="948" y="450" width="240" height="12" style="fill: none;" class="djs-outline"/></g></g><g class="djs-group"><g class="djs-element djs-shape" data-element-id="SequenceFlow_1olx69y_label" transform="translate(1056, 458)" style="display: block;"><g class="djs-visual"><text style="font-family: Arial,sans-serif; font-size: 11px;" class="djs-label"><tspan x="0" y="13">YES</tspan></text></g><rect x="0" y="0" width="24" height="13" style="fill: none; stroke-opacity: 0; stroke: white; stroke-width: 15px;" class="djs-hit"/><rect x="-6" y="-6" width="36" height="25" style="fill: none;" class="djs-outline"/></g></g><g class="djs-group"><g class="djs-element djs-connection" data-element-id="SequenceFlow_07n822y" style="display: block;"><g class="djs-visual"><path d="m  1207,431L1207,283 " style="fill: none; stroke-width: 2px; stroke: black; stroke-linejoin: round; marker-end: url('#sequenceflow-end-white-black-6bcvlo75t6jw3xy6g2l0h6khs');"/></g><polyline points="1207,431 1207,283 " style="fill: none; stroke-opacity: 0; stroke: white; stroke-width: 15px;" class="djs-hit"/><rect x="1201" y="277" width="12" height="160" style="fill: none;" class="djs-outline"/></g></g><g class="djs-group"><g class="djs-element djs-shape" data-element-id="SequenceFlow_07n822y_label" transform="translate(1213, 351)" style="display: block;"><g class="djs-visual"><text style="font-family: Arial,sans-serif; font-size: 11px;" class="djs-label"><tspan x="0" y="13">NO</tspan></text></g><rect x="0" y="0" width="18" height="13" style="fill: none; stroke-opacity: 0; stroke: white; stroke-width: 15px;" class="djs-hit"/><rect x="-6" y="-6" width="30" height="25" style="fill: none;" class="djs-outline"/></g></g><g class="djs-group"><g class="djs-element djs-connection" data-element-id="SequenceFlow_0ib1v99" style="display: block;"><g class="djs-visual"><path d="m  929,481L929,628 " style="fill: none; stroke-width: 2px; stroke: black; stroke-linejoin: round; marker-end: url('#sequenceflow-end-white-black-6bcvlo75t6jw3xy6g2l0h6khs');"/></g><polyline points="929,481 929,628 " style="fill: none; stroke-opacity: 0; stroke: white; stroke-width: 15px;" class="djs-hit"/><rect x="923" y="475" width="12" height="159" style="fill: none;" class="djs-outline"/></g></g><g class="djs-group"><g class="djs-element djs-shape" data-element-id="SequenceFlow_0ib1v99_label" transform="translate(935, 547)" style="display: block;"><g class="djs-visual"><text style="font-family: Arial,sans-serif; font-size: 11px;" class="djs-label"><tspan x="0" y="13">NO</tspan></text></g><rect x="0" y="0" width="18" height="13" style="fill: none; stroke-opacity: 0; stroke: white; stroke-width: 15px;" class="djs-hit"/><rect x="-6" y="-6" width="30" height="25" style="fill: none;" class="djs-outline"/></g></g><g class="djs-group"><g class="djs-element djs-connection" data-element-id="SequenceFlow_0hhwuwz" style="display: block;"><g class="djs-visual"><path d="m  819,786L819,456 L900,456 " style="fill: none; stroke-width: 2px; stroke: black; stroke-linejoin: round; marker-end: url('#sequenceflow-end-white-black-6bcvlo75t6jw3xy6g2l0h6khs'); marker-start: url('#conditional-default-flow-marker-white-black-6bcvlo75t6jw3xy6g2l0h6khs');"/></g><polyline points="819,786 819,456 900,456 " style="fill: none; stroke-opacity: 0; stroke: white; stroke-width: 15px;" class="djs-hit"/><rect x="813" y="450" width="93" height="342" style="fill: none;" class="djs-outline"/></g></g><g class="djs-group"><g class="djs-element djs-shape" data-element-id="SequenceFlow_0hhwuwz_label" transform="translate(732, 636)" style="display: block;"><g class="djs-visual"><text style="font-family: Arial,sans-serif; font-size: 11px;" class="djs-label"><tspan x="0" y="13">Wait for reply</tspan><tspan x="34" y="26"/></text></g><rect x="0" y="0" width="68" height="26" style="fill: none; stroke-opacity: 0; stroke: white; stroke-width: 15px;" class="djs-hit"/><rect x="-6" y="-6" width="80" height="38" style="fill: none;" class="djs-outline"/></g></g><g class="djs-group"><g class="djs-element djs-connection" data-element-id="SequenceFlow_0acjhbb" style="display: block;"><g class="djs-visual"><path d="m  904,826L869,826 " style="fill: none; stroke-width: 2px; stroke: black; stroke-linejoin: round; marker-end: url('#sequenceflow-end-white-black-6bcvlo75t6jw3xy6g2l0h6khs');"/></g><polyline points="904,826 869,826 " style="fill: none; stroke-opacity: 0; stroke: white; stroke-width: 15px;" class="djs-hit"/><rect x="863" y="820" width="47" height="12" style="fill: none;" class="djs-outline"/></g></g><g class="djs-group"><g class="djs-element djs-shape" data-element-id="SequenceFlow_0acjhbb_label" transform="translate(875, 804)" style="display: block;"><g class="djs-visual"><text style="font-family: Arial,sans-serif; font-size: 11px;" class="djs-label"><tspan x="0" y="13">YES</tspan></text></g><rect x="0" y="0" width="24" height="13" style="fill: none; stroke-opacity: 0; stroke: white; stroke-width: 15px;" class="djs-hit"/><rect x="-6" y="-6" width="36" height="25" style="fill: none;" class="djs-outline"/></g></g><g class="djs-group"><g class="djs-element djs-connection" data-element-id="SequenceFlow_1i1xfja" style="display: block;"><g class="djs-visual"><path d="m  954,826L1050,826 " style="fill: none; stroke-width: 2px; stroke: black; stroke-linejoin: round; marker-end: url('#sequenceflow-end-white-black-6bcvlo75t6jw3xy6g2l0h6khs');"/></g><polyline points="954,826 1050,826 " style="fill: none; stroke-opacity: 0; stroke: white; stroke-width: 15px;" class="djs-hit"/><rect x="948" y="820" width="108" height="12" style="fill: none;" class="djs-outline"/></g></g><g class="djs-group"><g class="djs-element djs-shape" data-element-id="SequenceFlow_1i1xfja_label" transform="translate(980, 803)" style="display: block;"><g class="djs-visual"><text style="font-family: Arial,sans-serif; font-size: 11px;" class="djs-label"><tspan x="0" y="13">NO</tspan></text></g><rect x="0" y="0" width="18" height="13" style="fill: none; stroke-opacity: 0; stroke: white; stroke-width: 15px;" class="djs-hit"/><rect x="-6" y="-6" width="30" height="25" style="fill: none;" class="djs-outline"/></g></g><g class="djs-group"><g class="djs-element djs-connection" data-element-id="SequenceFlow_0mxeegk" style="display: block;"><g class="djs-visual"><path d="m  929,664L929,801 " style="fill: none; stroke-width: 2px; stroke: black; stroke-linejoin: round; marker-end: url('#sequenceflow-end-white-black-6bcvlo75t6jw3xy6g2l0h6khs');"/></g><polyline points="929,664 929,801 " style="fill: none; stroke-opacity: 0; stroke: white; stroke-width: 15px;" class="djs-hit"/><rect x="923" y="658" width="12" height="149" style="fill: none;" class="djs-outline"/></g></g><g class="djs-group"><g class="djs-element djs-shape" data-element-id="SequenceFlow_0mxeegk_label" transform="translate(899, 726)" style="display: none;"><g class="djs-visual"><text style="font-family: Arial,sans-serif; font-size: 11px;" class="djs-label"><tspan x="0" y="13"/></text></g><rect x="0" y="0" width="90" height="13" style="fill: none; stroke-opacity: 0; stroke: white; stroke-width: 15px;" class="djs-hit"/><rect x="-6" y="-6" width="102" height="25" style="fill: none;" class="djs-outline"/></g></g><g class="djs-group"><g class="djs-element djs-connection" data-element-id="SequenceFlow_1sgnrdl" style="display: block;"><g class="djs-visual"><path d="m  1207,481L1207,646 L947,646 " style="fill: none; stroke-width: 2px; stroke: black; stroke-linejoin: round; marker-end: url('#sequenceflow-end-white-black-6bcvlo75t6jw3xy6g2l0h6khs');"/></g><polyline points="1207,481 1207,646 947,646 " style="fill: none; stroke-opacity: 0; stroke: white; stroke-width: 15px;" class="djs-hit"/><rect x="941" y="475" width="272" height="177" style="fill: none;" class="djs-outline"/></g></g><g class="djs-group"><g class="djs-element djs-shape" data-element-id="SequenceFlow_1sgnrdl_label" transform="translate(1215, 547)" style="display: block;"><g class="djs-visual"><text style="font-family: Arial,sans-serif; font-size: 11px;" class="djs-label"><tspan x="0" y="13">YES</tspan></text></g><rect x="0" y="0" width="24" height="13" style="fill: none; stroke-opacity: 0; stroke: white; stroke-width: 15px;" class="djs-hit"/><rect x="-6" y="-6" width="36" height="25" style="fill: none;" class="djs-outline"/></g></g></svg>